<svg xmlns="http://www.w3.org/2000/svg" width="302" height="355" viewBox="0 0 302 355" version="1.1">
	<path d="M 130.500 5.032 C 117.206 7.825, 104.649 12.833, 93.663 19.721 L 90.825 21.500 87.557 17.750 C 85.759 15.688, 83.984 14, 83.612 14 C 83.241 14, 79.656 16.470, 75.646 19.488 C 68.932 24.541, 62.004 31.751, 61.997 33.691 C 61.996 34.136, 62.965 36.333, 64.152 38.574 L 66.310 42.648 61.697 48.311 C 59.160 51.426, 56.575 54.925, 55.953 56.087 C 54.839 58.169, 52.960 58.299, 48.893 56.576 C 47.726 56.082, 46.943 56.724, 46.032 58.922 C 44.892 61.676, 45.014 62.227, 47.389 65.051 C 50.185 68.373, 50.497 69.666, 49.056 71.943 C 47.964 73.670, 45.781 72.841, 37.532 67.564 C 33.111 64.736, 31.490 62.842, 28.333 56.815 L 24.500 49.500 17.114 49.203 C 10.652 48.944, 9.436 49.181, 7.393 51.100 C 3.330 54.918, 2.550 59.195, 4.936 64.587 C 6.451 68.014, 7 71.346, 7 77.127 L 7 85 14.385 85 C 21.159 85, 21.906 84.793, 23.408 82.500 C 24.309 81.125, 25.543 80, 26.151 80 C 27.808 80, 43.996 90.358, 43.998 91.420 C 43.999 91.925, 42.124 99.575, 39.830 108.420 C 36.656 120.663, 35.015 125.250, 32.953 127.645 C 27.987 133.413, 26.650 138.774, 27.250 150.518 L 27.785 161 24.799 161 C 22.654 161, 21.665 160.437, 21.290 159 C 20.607 156.388, 18.728 156.469, 15.498 159.250 C 12.953 161.441, 12.881 161.829, 12.766 174 C 12.620 189.347, 16.514 213.571, 20.205 220.281 C 23.009 225.378, 26.711 226.329, 31.105 223.080 C 34.740 220.393, 35.058 220.434, 38.187 224 C 39.777 225.812, 41.797 227, 43.287 227 C 45.714 227, 48.817 229.517, 47.730 230.603 C 47.425 230.908, 44.257 231.824, 40.689 232.637 C 33.663 234.240, 33.035 235.007, 33.020 242 C 33.008 247.360, 38.720 267.315, 40.677 268.750 C 42.946 270.413, 46.820 270.328, 52 268.500 C 54.338 267.675, 56.601 267, 57.027 267 C 58.713 267, 69.242 285.709, 70.253 290.502 C 71.268 295.311, 71.183 295.682, 68.038 300.144 L 64.767 304.784 66.387 309.660 C 68.374 315.643, 73.094 322.761, 79.805 329.899 L 84.881 335.297 95.159 334.731 L 105.437 334.165 114.893 340.094 C 129.945 349.532, 148.127 354.125, 161.848 351.955 C 176.943 349.568, 186.235 345.976, 198.051 337.961 L 203.603 334.195 214.091 334.730 L 224.579 335.266 230.761 328.519 C 237.898 320.731, 241.456 315.064, 243.123 308.828 C 244.230 304.689, 244.131 304.155, 241.524 300.215 C 237.389 293.967, 238.177 288.854, 244.995 277.696 C 247.926 272.900, 250.814 268.574, 251.412 268.082 C 252.067 267.544, 255 267.842, 258.782 268.831 C 264.438 270.310, 265.336 270.322, 267.782 268.951 C 270.156 267.620, 270.920 265.830, 273.814 254.810 C 276.710 243.789, 276.990 241.676, 276.029 238.106 C 275.161 234.883, 274.355 233.891, 272.214 233.410 C 263.048 231.349, 261.881 230.857, 262.196 229.195 C 262.403 228.100, 263.670 227.389, 265.776 227.185 C 267.999 226.971, 269.726 225.937, 271.206 223.935 C 273.744 220.502, 275.980 220.215, 278.500 223 C 279.587 224.202, 281.580 225, 283.491 225 C 286.334 225, 286.949 224.441, 289.262 219.750 C 293.893 210.362, 298.022 180.370, 296.562 166.736 C 295.901 160.561, 295.620 159.973, 292.436 158.094 L 289.018 156.078 288.401 158.539 C 287.937 160.386, 287.116 161, 285.109 161 L 282.435 161 282.298 142.354 C 282.171 125.157, 281.999 123.489, 280.080 120.895 C 278.315 118.507, 278 116.635, 278 108.540 C 278 97.991, 278.328 97.567, 284.147 100.576 C 286.697 101.895, 287.984 101.964, 292.015 100.996 C 298.414 99.461, 300.331 97.282, 299.444 92.553 C 298.818 89.214, 298.502 88.930, 295.729 89.202 C 291.855 89.583, 291.006 87.410, 294.421 85.854 C 298.129 84.165, 297.802 80.891, 291.926 60.854 C 290.113 54.670, 289.699 54.097, 285.968 52.604 C 283.764 51.722, 280.619 51, 278.980 51 L 276 51 276 33.674 C 276 16.857, 275.932 16.285, 273.686 14.174 C 270.971 11.625, 269.437 11.419, 268.638 13.500 C 268.177 14.702, 265.970 15, 257.531 15 L 247 15 247 22.469 L 247 29.938 259.250 30.219 L 271.500 30.500 271.779 43.746 C 271.988 53.660, 271.651 58.391, 270.442 62.552 C 268.831 68.092, 268.814 68.109, 265.163 67.805 C 261.567 67.506, 261.495 67.415, 261.200 62.870 C 260.909 58.381, 260.787 58.221, 257.200 57.619 C 254.138 57.105, 252.811 56.024, 249.500 51.349 C 244.066 43.675, 230.910 30.376, 223 24.561 C 216.255 19.602, 206.693 14.427, 197.807 10.924 C 185.117 5.922, 159 1.166, 159 3.856 C 159 5.273, 151.367 5.402, 150.500 4 C 149.552 2.466, 140.483 2.934, 130.500 5.032 M 170.637 23.712 L 165.773 27.359 168.637 29.397 C 178.764 36.604, 191.774 51.917, 199.383 65.586 C 202.895 71.893, 203.831 72.826, 209.149 75.325 C 212.384 76.845, 217.492 80.093, 220.501 82.544 C 223.510 84.995, 226.172 87, 226.417 87 C 227.315 87, 212.521 61.250, 206.883 53 C 203.688 48.325, 197.403 40.450, 192.915 35.500 C 187.056 29.038, 185.211 26.409, 186.373 26.178 C 189.433 25.568, 204.513 30.018, 212.759 33.964 C 222.460 38.606, 228.648 42.703, 235.408 48.958 C 240.592 53.755, 252 67.531, 252 68.994 C 252 69.468, 247.247 74.816, 241.439 80.878 L 230.877 91.900 235.689 98.409 C 238.335 101.989, 240.725 104.934, 241 104.953 C 241.275 104.973, 246.408 99.776, 252.406 93.406 L 263.312 81.823 261.277 77.661 C 256.289 67.465, 240.403 47.861, 231.702 41.167 C 222.163 33.828, 202.667 25.324, 189.016 22.549 C 175.349 19.771, 175.940 19.734, 170.637 23.712 M 76.175 38.250 C 69.151 44.157, 63 52.240, 63 55.564 C 63 58.714, 67.358 73.340, 71.060 82.613 C 72.792 86.951, 74.621 91.566, 75.125 92.868 C 76.028 95.204, 76.095 95.174, 80.048 90.682 C 83.232 87.065, 88.346 82.816, 94.829 78.400 C 95.009 78.277, 93.539 73.171, 91.562 67.054 C 89.584 60.937, 86.961 50.775, 85.733 44.473 C 84.505 38.171, 83.257 33.011, 82.959 33.007 C 82.662 33.003, 79.609 35.362, 76.175 38.250 M 12.657 54.055 C 9.344 56.661, 8.958 62.157, 11.941 64.246 C 13.374 65.250, 13.963 67.029, 14.191 71.053 C 14.420 75.091, 14.888 76.500, 16 76.500 C 17.089 76.500, 17.586 75.145, 17.813 71.557 C 18.047 67.857, 18.739 66.045, 20.563 64.354 C 26.840 58.537, 19.355 48.786, 12.657 54.055 M 135.250 53.745 C 133.463 54.635, 132 55.648, 132 55.996 C 132 56.722, 138.578 60, 140.034 60 C 140.565 60, 141 58.200, 141 56 C 141 51.537, 140.266 51.249, 135.250 53.745 M 168 56 C 168 58.200, 168.435 60, 168.966 60 C 170.418 60, 177 56.723, 177 56 C 177 55.277, 170.418 52, 168.966 52 C 168.435 52, 168 53.800, 168 56 M 207.484 84.073 C 209.104 88.930, 208.196 92.811, 201.538 109.500 C 197.808 118.850, 194.549 127.035, 194.295 127.688 C 193.993 128.466, 195.297 128.985, 198.065 129.188 C 202.953 129.548, 205.190 131.885, 203.391 134.750 C 202.578 136.044, 200.689 136.578, 196.136 136.798 L 189.980 137.096 186.609 143.917 C 184.755 147.668, 181.975 152.893, 180.430 155.529 L 177.623 160.320 183.500 159.629 C 186.732 159.249, 192.455 158.238, 196.218 157.382 C 202.887 155.865, 203.133 155.697, 206.015 150.663 C 207.641 147.823, 211.566 139.766, 214.736 132.757 C 218.387 124.687, 220.620 120.767, 220.827 122.065 C 221.007 123.193, 221.519 123.977, 221.964 123.808 C 222.410 123.638, 226.011 120.437, 229.966 116.694 L 237.157 109.887 231.615 102.524 C 225.486 94.380, 219.787 89.217, 211.899 84.663 L 206.674 81.647 207.484 84.073 M 91.470 89.306 C 88.186 91.774, 84.017 95.639, 82.205 97.895 L 78.909 101.996 87.904 120.248 C 92.851 130.287, 99.414 142.405, 102.489 147.179 L 108.079 155.858 114.851 157.398 C 118.576 158.245, 124.258 159.248, 127.478 159.626 L 133.333 160.315 128.504 151.454 C 119.929 135.724, 121.251 137.119, 114.609 136.791 C 110.295 136.578, 108.412 136.029, 107.609 134.750 C 105.884 132.003, 108.061 129.579, 112.773 129 L 116.843 128.500 107.948 108.500 C 103.056 97.500, 98.690 87.672, 98.247 86.659 C 97.518 84.996, 96.863 85.252, 91.470 89.306 M 63.561 148.937 C 60.287 152.353, 59.640 158.077, 62.020 162.560 C 62.834 164.093, 70.362 170.439, 78.750 176.662 L 94 187.975 93.985 192.738 C 93.976 195.357, 93.639 198.012, 93.235 198.638 C 92.831 199.264, 84.850 202.116, 75.500 204.975 C 66.150 207.835, 57.487 210.821, 56.250 211.610 C 54.384 212.801, 54 213.944, 54 218.301 C 54 221.440, 54.627 224.450, 55.558 225.780 C 57.363 228.356, 57.443 228.351, 79.240 224.320 C 86.797 222.922, 93.614 222.022, 94.389 222.319 C 95.164 222.616, 97.675 227.729, 99.970 233.680 C 106.146 249.694, 109.425 252.078, 116.605 245.774 L 120.279 242.548 119.492 231.024 C 118.162 211.540, 117.992 212.800, 122.257 210.514 C 126.697 208.134, 126.599 208.397, 128.027 195 C 129.339 182.690, 132.257 176.599, 137.327 175.585 C 142.022 174.646, 170.639 174.912, 173.289 175.920 C 177.602 177.560, 179.958 183.240, 181.508 195.736 C 182.292 202.048, 183.412 207.792, 183.999 208.499 C 184.586 209.206, 186.460 210.362, 188.164 211.068 L 191.262 212.351 190.631 219.676 C 190.284 223.704, 189.718 230.272, 189.373 234.272 C 188.781 241.131, 188.897 241.724, 191.400 244.699 C 194.630 248.538, 199.165 249.777, 202.348 247.691 C 203.836 246.716, 206.065 242.424, 208.832 235.205 C 211.151 229.155, 213.707 223.658, 214.513 222.990 C 215.674 222.025, 218.819 222.296, 229.738 224.300 C 248.560 227.753, 251.278 228.074, 252.939 227.042 C 254.618 225.999, 256.120 215.279, 254.918 212.921 C 254.425 211.955, 246.762 209.055, 235.161 205.445 L 216.210 199.548 215.628 195.300 C 215.307 192.963, 215.373 190.166, 215.774 189.083 C 216.174 188, 222.915 182.373, 230.752 176.579 C 248.661 163.339, 251.576 158.882, 247.490 150.980 C 244.001 144.234, 240.194 144.430, 219.844 152.404 C 200.046 160.162, 195.125 161.606, 183.500 163.071 C 171.527 164.579, 137.874 164.585, 126 163.080 C 114.996 161.685, 109.158 159.950, 88.311 151.880 C 70.783 145.094, 67.604 144.716, 63.561 148.937 M 42.043 236.750 C 42.100 239.067, 47.621 265.954, 48.148 266.481 C 48.373 266.707, 49.203 266.493, 49.991 266.005 C 51.215 265.249, 51.235 264.196, 50.129 258.810 C 46.499 241.125, 44.770 235, 43.410 235 C 42.635 235, 42.019 235.787, 42.043 236.750 M 265.493 237.250 C 265.249 237.938, 263.715 244.565, 262.083 251.977 C 259.859 262.086, 259.415 265.644, 260.309 266.211 C 260.964 266.627, 261.950 266.828, 262.500 266.658 C 263.050 266.488, 264.903 259.520, 266.618 251.174 C 269.594 236.694, 269.650 236, 267.837 236 C 266.792 236, 265.737 236.563, 265.493 237.250 M 152.482 251.227 C 150.292 254.580, 148.350 257.700, 148.167 258.161 C 147.983 258.623, 151.696 259, 156.417 259 C 161.137 259, 165 258.790, 165 258.534 C 165 258.133, 157.394 246.061, 156.711 245.378 C 156.576 245.242, 154.673 247.874, 152.482 251.227 M 63.636 260.283 C 62.736 262.639, 62 264.889, 62 265.283 C 62 265.678, 64.250 266, 67 266 C 69.750 266, 72 265.744, 72 265.430 C 72 264.755, 66.047 256, 65.588 256 C 65.414 256, 64.536 257.928, 63.636 260.283 M 242.172 260.701 L 239.043 265.500 243.629 265.809 C 246.151 265.979, 248.436 265.897, 248.707 265.626 C 249.272 265.061, 247.124 257.901, 246.030 256.701 C 245.629 256.261, 243.893 258.061, 242.172 260.701" stroke="none" fill="#FFFFFF" fill-rule="evenodd"/>
</svg>